Results
version=1
nRows=29
nColumns=24
inDegrees=yes
endheader
time	pelvis_tilt	pelvis_list	pelvis_rotation	pelvis_tx	pelvis_ty	pelvis_tz	hip_flexion_r	hip_adduction_r	hip_rotation_r	knee_angle_r	ankle_angle_r	subtalar_angle_r	mtp_angle_r	hip_flexion_l	hip_adduction_l	hip_rotation_l	knee_angle_l	ankle_angle_l	subtalar_angle_l	mtp_angle_l	lumbar_extension	lumbar_bending	lumbar_rotation
      1.42500000	      1.15964736	      5.04596444	     -4.15557331	      0.28073786	      1.02366538	      0.31514267	     16.45280070	     -5.78518898	      0.07215971	    -56.61717731	      2.19383697	    -13.28062726	      5.17543499	      1.43198423	     10.03557614	     -1.33186194	     -5.89281787	     -0.43456690	    -13.40455981	      5.91765322	     -6.05055168	     -7.07132297	      5.15154445
      1.42916667	      1.12943431	      4.94695771	     -3.96293599	      0.28561408	      1.02401095	      0.31505249	     16.84671587	     -5.64843135	     -0.07270885	    -55.74373105	      2.35528787	    -13.16929781	      5.18650270	      0.99230588	      9.94426599	     -1.17674982	     -5.60903686	     -0.33247469	    -13.26691125	      5.89993875	     -6.07713177	     -6.96363284	      4.84391778
      1.43333333	      1.08272597	      4.83841544	     -3.76695945	      0.29047924	      1.02430679	      0.31496871	     17.24173906	     -5.50038111	     -0.22130929	    -54.82877566	      2.51153481	    -13.07305630	      5.19395453	      0.57974072	      9.83666066	     -1.03340376	     -5.34111971	     -0.25710361	    -13.12980539	      5.89240214	     -6.08581792	     -6.84872120	      4.64774897
      1.43750000	      1.09113716	      4.75771029	     -3.57416730	      0.29532653	      1.02460234	      0.31487255	     17.57795062	     -5.40022467	     -0.38489264	    -53.90515930	      2.62853210	    -12.97049605	      5.20614232	      0.10140898	      9.76331946	     -0.86931791	     -5.05329628	     -0.11844196	    -12.98891033	      5.87829674	     -6.16246223	     -6.76166476	      4.21474458
      1.44166667	      1.04381474	      4.66337501	     -3.38165068	      0.30017625	      1.02480198	      0.31480589	     17.95647551	     -5.27477033	     -0.53992967	    -52.93998856	      2.75663889	    -12.88157438	      5.21353252	     -0.30150126	      9.66489751	     -0.73035404	     -4.79444896	     -0.04642964	    -12.85311865	      5.87278525	     -6.17099615	     -6.66051318	      4.02961617
      1.44583333	      1.03507232	      4.59202628	     -3.18948774	      0.30500960	      1.02499961	      0.31473153	     18.28974961	     -5.18738947	     -0.70697948	    -51.96059211	      2.83492336	    -12.80814106	      5.22669355	     -0.75070077	      9.59323158	     -0.56755183	     -4.52123544	      0.08992290	    -12.71888882	      5.86085421	     -6.23037831	     -6.58768591	      3.57920924
      1.45000000	      0.97017729	      4.51875605	     -3.00153585	      0.30985414	      1.02507326	      0.31467368	     18.67332440	     -5.09406288	     -0.87058646	    -50.95639425	      2.92574933	    -12.72278748	      5.23358349	     -1.12353518	      9.51182819	     -0.43722405	     -4.27686129	      0.17351371	    -12.59092481	      5.85706429	     -6.21107235	     -6.50876210	      3.40776335
      1.45416667	      0.96125459	      4.45863043	     -2.81824294	      0.31467154	      1.02517637	      0.31461963	     18.98977026	     -5.02422477	     -1.04065808	    -49.93337742	      2.96806461	    -12.67332386	      5.24515184	     -1.56264599	      9.44641922	     -0.28528061	     -4.01608490	      0.31071680	    -12.45835235	      5.84903594	     -6.26986810	     -6.44707222	      2.99620431
      1.45833333	      0.90371202	      4.40242301	     -2.63432230	      0.31949460	      1.02517001	      0.31457281	     19.34811492	     -4.95700965	     -1.20949793	    -48.88815973	      3.00892749	    -12.61721444	      5.25701359	     -1.93598320	      9.38000563	     -0.14262688	     -3.78051660	      0.42008804	    -12.33643774	      5.84188687	     -6.26765135	     -6.38933290	      2.69650780
      1.46250000	      0.84721286	      4.34319569	     -2.45918815	      0.32433309	      1.02513692	      0.31454144	     19.69066119	     -4.88967498	     -1.38239877	    -47.81280786	      3.03910340	    -12.54622430	      5.26152238	     -2.30514401	      9.30743419	     -0.02251774	     -3.55567535	      0.51659537	    -12.22041971	      5.84071752	     -6.25652695	     -6.32316940	      2.54387672
      1.46666667	      0.79609040	      4.29499693	     -2.28831164	      0.32915573	      1.02505534	      0.31451632	     20.02155704	     -4.83731236	     -1.55736130	    -46.72314400	      3.03812675	    -12.49762384	      5.26514072	     -2.67688031	      9.24599971	      0.10589777	     -3.33352361	      0.63832666	    -12.10239507	      5.84041504	     -6.25593832	     -6.27323161	      2.30856190
      1.47083333	      0.75941214	      4.26843085	     -2.13130469	      0.33396793	      1.02493074	      0.31451950	     20.33714304	     -4.80775168	     -1.72013178	    -45.63050256	      3.01078344	    -12.48971123	      5.27161450	     -3.06571594	      9.20665190	      0.23580660	     -3.10434118	      0.78563724	    -11.98172406	      5.83860692	     -6.28061630	     -6.25219641	      1.91667165
      1.47500000	      0.69871877	      4.23724614	     -1.97650402	      0.33880538	      1.02475262	      0.31452194	     20.66074827	     -4.77770763	     -1.89673430	    -44.50730452	      2.99597873	    -12.41977305	      5.27406897	     -3.41806340	      9.16004557	      0.34282444	     -2.89781864	      0.88547129	    -11.87255179	      5.83904938	     -6.26331462	     -6.22098844	      1.77473794
      1.47916667	      0.65246341	      4.21596837	     -1.83315400	      0.34363267	      1.02453901	      0.31455115	     20.96333685	     -4.75424334	     -2.05967949	    -43.37184460	      2.93323193	    -12.42321669	      5.27823846	     -3.78807736	      9.12322220	      0.46030917	     -2.68610287	      1.03716896	    -11.75792160	      5.83872135	     -6.27438315	     -6.20618498	      1.44276056
      1.48333333	      0.58702957	      4.19451846	     -1.69356541	      0.34848529	      1.02427152	      0.31457181	     21.27143771	     -4.73645942	     -2.23645173	    -42.21199305	      2.88249368	    -12.35362373	      5.27970665	     -4.12963622	      9.08523771	      0.55948717	     -2.49193564	      1.15418186	    -11.65536879	      5.83963437	     -6.24736179	     -6.18127803	      1.30231462
      1.48750000	      0.51523378	      4.18503913	     -1.57174408	      0.35334614	      1.02394231	      0.31463678	     21.58568665	     -4.72816082	     -2.40967281	    -41.05019967	      2.81343189	    -12.29921217	      5.27964545	     -4.47116302	      9.05837033	      0.65409985	     -2.28076528	      1.28504529	    -11.55169010	      5.84129520	     -6.22575284	     -6.18429562	      1.15124817
      1.49166667	      0.47909265	      4.17555107	     -1.44586272	      0.35819025	      1.02364046	      0.31470985	     21.83756260	     -4.71775468	     -2.57709325	    -39.84700052	      2.70381597	    -12.32170612	      5.28232768	     -4.83645462	      9.02978879	      0.75151620	     -2.10303152	      1.44413303	    -11.43473644	      5.84097278	     -6.23707218	     -6.18041725	      0.81481839
      1.49583333	      0.41287506	      4.17358034	     -1.33062103	      0.36306021	      1.02324501	      0.31478787	     22.11780659	     -4.71732752	     -2.75188178	    -38.64130504	      2.60717919	    -12.27176585	      5.28560963	     -5.16783359	      9.00965838	      0.84045495	     -1.92996196	      1.59630404	    -11.33542589	      5.84073766	     -6.21516643	     -6.18555096	      0.63729139
      1.50000000	      0.32568426	      4.19679832	     -1.24474096	      0.36795063	      1.02275472	      0.31490686	     22.42864563	     -4.73855900	     -2.91066378	    -37.44828356	      2.51772640	    -12.16187797	      5.28571734	     -5.49112524	      9.01760932	      0.92662175	     -1.72232139	      1.72340337	    -11.24038932	      5.84249765	     -6.15039685	     -6.21825499	      0.56997505
      1.50416667	      0.27301745	      4.19233993	     -1.12475302	      0.37282761	      1.02233033	      0.31498681	     22.65854017	     -4.74309309	     -3.12156586	    -36.18714967	      2.38394639	    -12.12084393	      5.28759377	     -5.81714002	      8.99134552	      0.99245283	     -1.59292460	      1.88910716	    -11.15383570	      5.84260892	     -6.14002460	     -6.20898114	      0.38949652
      1.50833333	      0.19798873	      4.19645241	     -1.03375267	      0.37774092	      1.02181888	      0.31511610	     22.91540045	     -4.74666711	     -3.31403184	    -34.93370592	      2.25179392	    -12.05043449	      5.29068737	     -6.13949531	      8.97509624	      1.05841254	     -1.41976838	      2.04726112	    -11.05920018	      5.84285470	     -6.10671875	     -6.22742384	      0.24229219
      1.51250000	      0.12410557	      4.21533649	     -0.94748425	      0.38265209	      1.02126736	      0.31525767	     23.16234090	     -4.76443435	     -3.50790883	    -33.66979829	      2.11902151	    -11.96840923	      5.29539869	     -6.45400425	      8.97493464	      1.12417953	     -1.26785987	      2.21324394	    -10.96930526	      5.84271932	     -6.06520116	     -6.25986848	      0.10146035
      1.51666667	      0.07652483	      4.22727854	     -0.85594781	      0.38754429	      1.02073948	      0.31541300	     23.35786668	     -4.77072431	     -3.69569149	    -32.36822518	      1.96552740	    -11.91879542	      5.30984013	     -6.78845834	      8.96397292	      1.19803968	     -1.13285649	      2.39669464	    -10.84979618	      5.83948288	     -6.07362961	     -6.27743422	     -0.12106653
      1.52083333	     -0.01489050	      4.25403454	     -0.79047700	      0.39250245	      1.02007615	      0.31558603	     23.60991524	     -4.79416989	     -3.90901417	    -31.09198868	      1.82721218	    -11.77091980	      5.31898766	     -7.08950038	      8.97275714	      1.24674834	     -0.97228284	      2.56459938	    -10.77426092	      5.83882243	     -5.99593127	     -6.31975407	     -0.20035865
      1.52500000	     -0.07174290	      4.26645408	     -0.70567044	      0.39743237	      1.01946764	      0.31576007	     23.79071231	     -4.80039306	     -4.12478558	    -29.76302896	      1.66916224	    -11.68469088	      5.34967461	     -7.40945697	      8.96064139	      1.31402509	     -0.85192259	      2.76369643	    -10.65935516	      5.83267860	     -5.99127834	     -6.34058008	     -0.40237133
      1.52916667	     -0.15941796	      4.30316931	     -0.64315844	      0.40240069	      1.01875867	      0.31594824	     24.01467837	     -4.83109972	     -4.35360210	    -28.45889236	      1.52362112	    -11.49798469	      5.36553929	     -7.70414933	      8.97918184	      1.36574997	     -0.71478083	      2.93849923	    -10.59203410	      5.83109998	     -5.91728708	     -6.38642383	     -0.46135334
      1.53333333	     -0.23467902	      4.32958242	     -0.57603222	      0.40737151	      1.01804671	      0.31614890	     24.20468814	     -4.84904950	     -4.59507213	    -27.12928944	      1.37645449	    -11.31652799	      5.38589438	     -8.00581824	      8.98358182	      1.42717730	     -0.59426041	      3.13180002	    -10.51708724	      5.82909173	     -5.87054208	     -6.42320928	     -0.54848477
      1.53750000	     -0.28875308	      4.35303474	     -0.49551510	      0.41232999	      1.01735327	      0.31633956	     24.34766607	     -4.86366561	     -4.84302003	    -25.76830702	      1.23404293	    -11.15344517	      5.43485781	     -8.31321844	      8.98169531	      1.48565296	     -0.51075676	      3.33290050	    -10.41583407	      5.82145058	     -5.86487204	     -6.44907885	     -0.72196099
      1.54166667	     -0.37267169	      4.38931302	     -0.45014593	      0.41734148	      1.01656037	      0.31659213	     24.53485007	     -4.87874159	     -5.08740820	    -24.43629949	      1.09014141	    -10.92241932	      5.46520094	     -8.60911520	      8.99706664	      1.53467397	     -0.38535353	      3.53146238	    -10.35596185	      5.81838275	     -5.79461842	     -6.50754846	     -0.78813347
